<svg width="118" height="57" viewBox="0 0 118 57" fill="none" xmlns="http://www.w3.org/2000/svg">
<path d="M93.6896 6.273C93.6482 7.17071 93.8303 8.0774 93.9182 8.98036C93.9338 9.11003 93.9494 9.23945 93.965 9.36912C94.0197 9.59073 94.0745 9.81235 94.1295 10.0342C94.1526 10.1454 94.1757 10.2566 94.1991 10.3675C94.3162 10.7203 94.4335 11.0731 94.5506 11.4256C94.5837 11.5598 94.6169 11.694 94.65 11.8279C94.6968 11.9181 94.7432 12.0083 94.79 12.0985C94.8234 12.1957 94.8568 12.2923 94.8902 12.3893C94.9374 12.4782 94.9847 12.5672 95.0321 12.6561C95.0578 12.7176 95.0834 12.7793 95.109 12.8408C95.1598 12.9332 95.2105 13.0262 95.2607 13.1188C95.2874 13.1763 95.314 13.2338 95.3406 13.291C95.3964 13.3802 95.4522 13.4689 95.5077 13.5581C95.6027 13.6965 95.6976 13.8352 95.7923 13.9741C95.9358 14.15 96.079 14.3264 96.2221 14.5023C96.2812 14.5847 96.3405 14.6669 96.3998 14.7494C97.7739 16.5173 100.388 17.4372 102.762 15.7517C102.898 15.6551 103.122 15.6668 103.305 15.6278C103.448 15.1526 103.738 14.8196 104.224 14.6772C103.738 14.8196 103.448 15.1524 103.305 15.6278C103.49 15.7567 103.675 15.8857 103.86 16.0146C103.956 16.0636 104.051 16.1128 104.147 16.1617C104.331 16.23 104.516 16.2987 104.7 16.3669L104.722 16.3426L104.705 16.3704C105.077 16.4461 105.449 16.522 105.821 16.5975C105.979 16.598 106.136 16.5985 106.294 16.5987C106.532 16.5413 106.769 16.4838 107.007 16.4261C107.089 16.4231 107.17 16.4196 107.251 16.4166C107.779 16.142 108.307 15.8677 108.834 15.5933C110.118 14.7096 110.849 13.4596 111.364 12.0967C111.505 11.7234 111.392 11.2655 111.396 10.8465C111.389 10.737 111.401 10.6226 111.372 10.5192C111.01 9.26369 109.741 8.30028 108.282 8.16711C106.565 8.01045 105.211 8.6653 104.476 10.0082C104.403 10.1696 104.329 10.3313 104.256 10.4927C104.245 10.5517 104.235 10.6104 104.225 10.6691C104.19 10.7643 104.155 10.8592 104.121 10.9544C104.077 11.0843 104.032 11.2145 103.988 11.3444C103.915 11.5141 103.843 11.6835 103.77 11.8531C103.54 12.2214 103.31 12.5894 103.08 12.9579C103.003 12.9952 102.925 13.0324 102.848 13.0699C102.925 13.0324 103.003 12.9952 103.08 12.9577C103.009 12.9107 102.936 12.8638 102.865 12.817C102.631 12.3353 102.397 11.8539 102.163 11.3719C101.896 11.4644 101.624 11.5448 101.363 11.6462C101.624 11.5448 101.896 11.4644 102.162 11.3719C102.088 11.1201 102.013 10.8682 101.938 10.6164C101.886 10.4877 101.834 10.359 101.782 10.2304C101.77 10.1302 101.757 10.03 101.744 9.92978C101.677 9.69293 101.61 9.45657 101.544 9.21996C101.535 9.0823 101.526 8.94488 101.517 8.80746C101.449 8.4182 101.381 8.02893 101.313 7.63967C101.314 7.58146 101.315 7.52324 101.317 7.46503C101.331 7.13423 101.372 6.80219 101.353 6.47314C101.324 6.00017 101.073 5.67961 100.538 5.61315C100.461 5.60491 100.385 5.59641 100.308 5.58792C100.197 5.55943 100.087 5.50622 99.9761 5.50597C99.2141 5.50372 98.4522 5.50372 97.6903 5.50372C96.759 5.50397 95.828 5.50422 94.8967 5.49972C94.893 5.49972 94.8892 5.49972 94.8854 5.49972C94.2813 5.49972 93.7148 5.72958 93.6896 6.273ZM98.618 5.74232C98.6185 5.74232 98.6187 5.74232 98.6193 5.74232C99.084 5.81853 99.5493 5.89474 100.05 5.97669C99.5488 5.89474 99.0832 5.81828 98.618 5.74232ZM97.5905 13.8122C96.8416 12.6916 96.1654 11.5323 95.9023 10.2204C95.6873 9.14901 95.5687 8.06067 95.4075 6.98008C96.7608 6.96284 98.1138 6.94534 99.4674 6.92785C99.5377 7.104 99.6399 7.27515 99.6718 7.45703C99.7444 7.86704 99.7824 8.28253 99.8344 8.69553C99.9562 9.25669 100.078 9.8181 100.2 10.3793C100.499 11.1918 100.799 12.004 101.099 12.8165C101.099 12.8165 101.099 12.8168 101.099 12.8173C101.121 12.8658 101.142 12.9142 101.164 12.9624C101.225 13.0646 101.287 13.1671 101.349 13.269C101.365 13.3167 101.381 13.3644 101.396 13.4122C101.55 13.6425 101.703 13.8729 101.857 14.103L101.855 14.1125C101.86 14.5455 101.346 14.9542 100.64 15.0847C99.7038 15.2573 98.926 14.9595 98.2429 14.3791C98.0234 14.1922 97.8078 14.0013 97.5905 13.8122ZM104.447 13.9926C104.879 13.0346 105.398 12.109 105.786 11.1365C106.167 10.1834 106.704 9.68044 107.676 9.60348C108.571 9.53253 109.311 9.99649 109.75 10.9029C109.775 10.9537 109.802 11.0034 109.829 11.0536C109.813 11.2805 109.798 11.5073 109.783 11.7344C109.747 11.8066 109.71 11.8793 109.674 11.9521C109.055 12.8095 108.436 13.6668 107.817 14.5245C107.47 14.7156 107.122 14.9068 106.775 15.0979C106.657 15.1204 106.538 15.1429 106.419 15.1654C106.178 15.1659 105.938 15.1664 105.697 15.1669C105.578 15.1479 105.459 15.1286 105.34 15.1096C105.026 14.9517 104.711 14.7941 104.397 14.6362C104.41 14.4201 104.362 14.1797 104.447 13.9926ZM111.174 11.7619L111.174 11.7622C111.153 11.7899 111.133 11.8176 111.112 11.8451C111.133 11.8176 111.153 11.7897 111.174 11.7619ZM97.5719 13.8402C97.5634 13.8532 97.5548 13.8659 97.5463 13.8789C97.5546 13.8659 97.5634 13.8532 97.5719 13.8402Z" fill="url(#paint0_linear_3756_54048)"/>
<path d="M36.7764 36.9922C36.6304 36.9922 36.5209 36.9145 36.448 36.7576C36.3744 36.6014 36.3797 36.4558 36.4634 36.3216L47.2277 20.7603C47.4985 20.3808 47.8847 20.0727 48.3851 19.8381C48.886 19.6035 49.3867 19.4858 49.8871 19.4858C50.3878 19.4858 50.8882 19.6035 51.3891 19.8381C51.8901 20.0727 52.286 20.3808 52.5784 20.7603L63.3111 36.3216C63.4154 36.4558 63.4309 36.6014 63.3583 36.7576C63.2845 36.9145 63.1651 36.9922 62.9983 36.9922H60.9956C60.3073 36.9922 59.7541 36.6906 59.3374 36.0867L50.1062 22.7391C50.0439 22.6721 49.9703 22.6384 49.8871 22.6384C49.8037 22.6384 49.7412 22.6721 49.6995 22.7391L40.4688 36.0867C40.0512 36.6906 39.488 36.9922 38.7786 36.9922H36.7764Z" fill="white"/>
<path d="M94.2461 21.1293C94.2461 20.6823 94.4094 20.2966 94.7352 19.9725C95.0608 19.6485 95.4602 19.4861 95.9325 19.4861H96.9442C97.1009 19.4861 97.2358 19.5363 97.3486 19.637C97.4609 19.7374 97.5169 19.8663 97.5169 20.0227V35.3155C97.5169 35.7852 97.3541 36.1822 97.0283 36.5062C96.7022 36.8303 96.3031 36.9922 95.8313 36.9922H94.8196C94.6619 36.9922 94.527 36.937 94.4149 36.8248C94.3021 36.7131 94.2461 36.5789 94.2461 36.4225V21.1293Z" fill="white"/>
<path d="M9.22424 28.7865C9.43827 28.8162 9.53097 28.8399 9.62342 28.8402C14.5161 28.8417 19.409 28.8557 24.3017 28.8242C24.9446 28.8202 25.6161 28.6638 26.222 28.4389C27.5595 27.9427 28.1077 26.8826 28.1167 25.5027C28.1265 23.9824 27.5341 22.934 26.2371 22.4648C25.5729 22.2247 24.8363 22.0755 24.1312 22.0706C19.3955 22.0363 14.6593 22.0508 9.92312 22.0556C9.68673 22.0558 9.45033 22.1098 9.22424 22.1375V28.7865ZM27.1304 31.0144C28.1981 32.424 29.2735 33.8437 30.3488 35.263C30.4244 35.3627 30.5053 35.4589 30.5759 35.5619C30.7816 35.8624 31.1228 36.123 30.9406 36.5553C30.7339 37.0457 30.2746 36.9093 29.8835 36.9625C28.8827 37.0987 28.1918 36.7709 27.6165 35.8844C26.7167 34.4973 25.654 33.2153 24.6861 31.8704C24.4052 31.4803 24.107 31.2915 23.6031 31.2935C19.0209 31.3117 14.4385 31.3042 9.8563 31.3069C9.67341 31.3069 9.49078 31.3352 9.22926 31.3567C9.20791 31.692 9.17425 31.992 9.17274 32.2921C9.16646 33.5094 9.17626 34.7269 9.16796 35.9441C9.16168 36.8401 9.07275 36.945 8.22565 36.9538C6.29481 36.9738 6.45232 37.0422 6.45232 35.2728C6.45182 30.4969 6.45207 25.7211 6.45232 20.9452C6.45257 20.6956 6.44805 20.4453 6.46237 20.1964C6.48774 19.7562 6.71383 19.5044 7.17356 19.4959C7.39312 19.4916 7.61294 19.4916 7.8325 19.4916C13.1995 19.4914 18.5667 19.4711 23.9332 19.5099C24.9247 19.5169 25.954 19.6343 26.8983 19.9209C30.3078 20.9555 31.0863 23.8097 30.7874 26.3582C30.5507 28.3737 29.4949 29.8358 27.604 30.6653C27.4902 30.7153 27.3754 30.7663 27.2701 30.8315C27.2214 30.8615 27.1947 30.9272 27.1304 31.0144Z" fill="white"/>
<path d="M71.9801 34.4747C72.2921 34.4897 72.6042 34.5177 72.9162 34.5179C77.786 34.5207 82.6556 34.5192 87.5254 34.5209C87.852 34.5209 88.1796 34.5207 88.5044 34.5504C89.1221 34.6066 89.5693 34.9706 89.8079 35.567C90.1335 36.381 90.0172 36.9959 88.9792 36.9922C81.9419 36.9667 74.9043 36.9809 67.867 36.9757C67.1339 36.9752 66.7692 36.794 66.7332 36.3143C66.6832 35.6455 66.43 34.8852 67.1171 34.3735C67.3859 34.1736 67.6632 33.9872 67.9378 33.7966C73.2812 30.0896 78.6248 26.3829 83.9679 22.6756C84.2279 22.495 84.4849 22.3093 84.7434 22.1262C84.7231 22.0512 84.703 21.9765 84.6826 21.9018H83.7461C78.7577 21.9018 73.769 21.9021 68.7804 21.9013C68.5134 21.9013 68.2441 21.9156 67.9793 21.8853C67.15 21.7906 66.6046 21.0214 66.7013 20.1322C66.7423 19.7559 66.9149 19.5428 67.2595 19.51C67.4954 19.4875 67.7338 19.4883 67.9712 19.4883C74.8008 19.4873 81.6304 19.4875 88.4599 19.4875C88.6084 19.4875 88.7574 19.4823 88.9053 19.4915C89.6856 19.5398 89.8348 19.7601 89.912 20.6164C89.9878 21.4579 89.6846 21.9573 89.0274 22.4093C83.5708 26.163 78.1354 29.9524 72.6943 33.7321C72.4336 33.913 72.1786 34.1034 71.9211 34.2893C71.9407 34.351 71.9605 34.413 71.9801 34.4747Z" fill="white"/>
<defs>
<linearGradient id="paint0_linear_3756_54048" x1="93.6836" y1="11.0707" x2="111.435" y2="11.0707" gradientUnits="userSpaceOnUse">
<stop stop-color="#A4D3F2"/>
<stop offset="0.532258" stop-color="#938EC4"/>
<stop offset="1" stop-color="#6774B1"/>
</linearGradient>
</defs>
</svg>
