<svg xmlns="http://www.w3.org/2000/svg" width="284" height="140" viewBox="0 0 284 140" fill="none">
<g clip-path="url(#clip0_145_29440)">
<path d="M88.508 54.0442H65V62.232H71.5558V86.9559H81.9522V62.232H88.508V54.0442Z" fill="white"/>
<path d="M102.265 54.0442H91.8682V86.9559H102.265V54.0442Z" fill="white"/>
<path d="M119.377 54.0442H108.98V86.9559H119.377V54.0442Z" fill="white"/>
<path d="M144.527 52.5311H141.225V51.4803H148.948V52.5311H145.65V61.3546H144.527V52.5311Z" fill="white"/>
<path d="M151.993 60.5666C152.426 60.5708 152.855 60.4813 153.251 60.304C153.646 60.1267 153.998 59.8659 154.283 59.5395L154.958 60.1463C154.595 60.5859 154.136 60.9371 153.618 61.1733C153.099 61.4095 152.534 61.5245 151.964 61.5096C149.968 61.5096 148.339 59.9755 148.339 57.7112C148.339 55.6097 149.813 53.9102 151.823 53.9102C153.974 53.9102 155.212 55.6281 155.212 57.7664C155.213 57.8935 155.208 58.0206 155.196 58.1473H149.425C149.588 59.6813 150.713 60.5666 151.993 60.5666ZM154.116 57.2751C153.987 55.9617 153.229 54.8243 151.796 54.8243C150.545 54.8243 149.588 55.875 149.435 57.2751H154.116Z" fill="white"/>
<path d="M156.38 57.7375V57.7112C156.378 56.9391 156.611 56.1849 157.049 55.5493C157.487 54.9137 158.108 54.4271 158.829 54.1546C159.551 53.8821 160.338 53.8367 161.086 54.0244C161.834 54.2122 162.507 54.6241 163.015 55.2052L162.298 55.9644C161.721 55.3602 161.076 54.869 160.092 54.869C158.615 54.869 157.49 56.1193 157.49 57.6823V57.7112C157.49 59.2873 158.644 60.5403 160.16 60.5403C161.089 60.5403 161.805 60.0754 162.382 59.4554L163.07 60.1043C162.34 60.9186 161.469 61.5096 160.105 61.5096C159.613 61.509 159.125 61.4106 158.671 61.2203C158.216 61.03 157.804 60.7514 157.458 60.4007C157.111 60.05 156.838 59.6341 156.653 59.177C156.468 58.7199 156.375 58.2307 156.38 57.7375Z" fill="white"/>
<path d="M164.578 51.4803H165.659V55.3208C165.903 54.8782 166.265 54.5115 166.703 54.2608C167.142 54.0102 167.641 53.8852 168.146 53.8997C169.904 53.8997 170.929 55.0817 170.929 56.8128V61.331H169.848V57.0913C169.848 55.7411 169.117 54.8952 167.839 54.8952C166.561 54.8952 165.659 55.8094 165.659 57.1753V61.3415H164.578V51.4803Z" fill="white"/>
<path d="M172.957 54.0652H174.038V55.3313C174.282 54.8887 174.644 54.522 175.082 54.2713C175.521 54.0207 176.02 53.8957 176.525 53.9102C178.282 53.9102 179.308 55.0923 179.308 56.8233V61.3415H178.227V57.0913C178.227 55.7411 177.495 54.8952 176.218 54.8952C174.94 54.8952 174.038 55.8094 174.038 57.1753V61.3415H172.957V54.0652Z" fill="white"/>
<path d="M180.885 57.7375V57.7112C180.881 56.7052 181.277 55.7389 181.984 55.0248C182.692 54.3107 183.654 53.9074 184.659 53.9036C185.663 53.8998 186.628 54.2957 187.342 55.0044C188.055 55.713 188.457 56.6763 188.461 57.6823V57.7112C188.464 58.2121 188.367 58.7086 188.177 59.1718C187.986 59.6349 187.705 60.0555 187.351 60.4089C186.996 60.7624 186.575 61.0418 186.112 61.2307C185.649 61.4197 185.152 61.5145 184.652 61.5096C184.156 61.5156 183.663 61.4221 183.204 61.2347C182.744 61.0472 182.326 60.7696 181.975 60.4181C181.624 60.0666 181.347 59.6484 181.16 59.1881C180.972 58.7277 180.879 58.2345 180.885 57.7375ZM187.352 57.7375V57.7112C187.352 56.1351 186.184 54.869 184.652 54.869C183.078 54.869 181.995 56.1482 181.995 57.6823V57.7112C181.995 59.2715 183.149 60.5403 184.681 60.5403C186.255 60.5403 187.352 59.2715 187.352 57.7375Z" fill="white"/>
<path d="M190.234 51.4803H191.318V61.331H190.234V51.4803Z" fill="white"/>
<path d="M193.102 57.7375V57.7112C193.098 56.7052 193.493 55.7389 194.201 55.0248C194.909 54.3107 195.871 53.9074 196.876 53.9036C197.88 53.8998 198.845 54.2957 199.558 55.0044C200.272 55.713 200.674 56.6763 200.678 57.6823V57.7112C200.681 58.2121 200.584 58.7086 200.394 59.1718C200.203 59.6349 199.922 60.0555 199.568 60.4089C199.213 60.7624 198.792 61.0418 198.329 61.2307C197.865 61.4197 197.369 61.5145 196.869 61.5096C196.373 61.5156 195.88 61.4221 195.42 61.2347C194.961 61.0472 194.543 60.7696 194.192 60.4181C193.841 60.0666 193.564 59.6484 193.376 59.1881C193.189 58.7277 193.096 58.2345 193.102 57.7375ZM199.568 57.7375V57.7112C199.568 56.1351 198.401 54.869 196.869 54.869C195.295 54.869 194.214 56.1482 194.214 57.6823V57.7112C194.214 59.2715 195.366 60.5403 196.898 60.5403C198.472 60.5403 199.579 59.2715 199.579 57.7375H199.568Z" fill="white"/>
<path d="M202.27 62.6077L202.761 61.7645C203.568 62.369 204.549 62.6944 205.557 62.6918C207.16 62.6918 208.201 61.8065 208.201 60.1043V59.2454C207.567 60.0886 206.683 60.7794 205.347 60.7794C204.898 60.7858 204.451 60.7018 204.035 60.5325C203.618 60.3631 203.24 60.1118 202.922 59.7934C202.604 59.475 202.353 59.096 202.184 58.6789C202.014 58.2617 201.931 57.8147 201.937 57.3645V57.3383C201.938 56.6067 202.172 55.8946 202.605 55.3051C203.037 54.7156 203.646 54.2793 204.343 54.0595C205.04 53.8397 205.788 53.8478 206.48 54.0826C207.172 54.3174 207.771 54.7668 208.191 55.3655V54.0521H209.274V60.0623C209.274 61.1866 208.936 62.0456 208.346 62.6366C207.7 63.2854 206.73 63.6085 205.578 63.6085C204.399 63.626 203.243 63.2763 202.27 62.6077ZM208.228 57.354V57.3251C208.228 55.8331 206.934 54.8638 205.557 54.8638C204.18 54.8638 203.041 55.82 203.041 57.312V57.3409C203.039 57.6701 203.104 57.9964 203.23 58.3004C203.356 58.6044 203.542 58.8799 203.777 59.1106C204.011 59.3414 204.29 59.5226 204.596 59.6437C204.901 59.7647 205.228 59.8231 205.557 59.8154C206.924 59.8206 208.236 58.8356 208.236 57.3593L208.228 57.354Z" fill="white"/>
<path d="M210.985 63.2696L211.35 62.4107C211.7 62.5962 212.093 62.6868 212.489 62.6733C213.137 62.6733 213.538 62.3345 213.979 61.3074L210.676 54.0652H211.872L214.514 60.1306L216.846 54.0652H218L214.949 61.5806C214.33 63.0858 213.638 63.6348 212.533 63.6348C211.995 63.6408 211.464 63.5155 210.985 63.2696Z" fill="white"/>
<path d="M144.383 64.2888H145.492V74.1395H144.383V64.2888Z" fill="white"/>
<path d="M147.911 66.8632H148.995V68.1293C149.239 67.6865 149.6 67.3197 150.039 67.069C150.477 66.8183 150.977 66.6935 151.482 66.7082C153.239 66.7082 154.265 67.8903 154.265 69.6214V74.1395H153.181V69.8893C153.181 68.5391 152.452 67.6933 151.172 67.6933C149.892 67.6933 148.995 68.6074 148.995 69.9734V74.1395H147.911V66.8632Z" fill="white"/>
<path d="M156.293 66.8632H157.376V68.1293C157.621 67.6884 157.983 67.3234 158.421 67.0741C158.859 66.8249 159.357 66.701 159.861 66.7161C161.618 66.7161 162.644 67.8981 162.644 69.6292V74.1474H161.561V69.8893C161.561 68.5391 160.831 67.6933 159.551 67.6933C158.271 67.6933 157.374 68.6074 157.374 69.9733V74.1395H156.293V66.8632Z" fill="white"/>
<path d="M164.221 70.5381V70.5092C164.217 69.5032 164.613 68.5368 165.32 67.8228C166.028 67.1087 166.99 66.7054 167.995 66.7016C168.999 66.6977 169.964 67.0937 170.678 67.8023C171.391 68.511 171.793 69.4743 171.797 70.4803V70.5092C171.8 71.0101 171.703 71.5066 171.513 71.9697C171.322 72.4329 171.041 72.8534 170.687 73.2069C170.332 73.5604 169.911 73.8397 169.448 74.0287C168.985 74.2177 168.488 74.3125 167.988 74.3076C167.492 74.3136 167 74.2202 166.54 74.0329C166.08 73.8456 165.663 73.5682 165.312 73.217C164.961 72.8658 164.684 72.4479 164.496 71.9879C164.309 71.5278 164.215 71.0349 164.221 70.5381ZM170.688 70.5381V70.5092C170.688 68.9462 169.52 67.6669 167.988 67.6669C166.414 67.6669 165.331 68.9462 165.331 70.4803V70.5092C165.331 72.0695 166.485 73.3383 168.017 73.3383C169.591 73.3383 170.688 72.0695 170.688 70.5381Z" fill="white"/>
<path d="M172.332 66.8632H173.528L175.973 72.9049L178.434 66.8632H179.599L176.451 74.1973H175.493L172.332 66.8632Z" fill="white"/>
<path d="M180.124 72.0275V72.0012C180.124 70.4251 181.388 69.6213 183.23 69.6213C183.981 69.6137 184.729 69.7182 185.449 69.9313V69.7054C185.449 68.413 184.662 67.7352 183.301 67.7352C182.534 67.7408 181.779 67.9204 181.092 68.2606L180.769 67.3727C181.592 66.9655 182.496 66.7534 183.414 66.7528C184.439 66.7528 185.25 67.0339 185.759 67.5566C186.268 68.0794 186.52 68.765 186.52 69.6949V74.1421H185.449V73.0599C185.141 73.4591 184.742 73.7794 184.286 73.9945C183.83 74.2096 183.33 74.3133 182.826 74.2971C181.478 74.2945 180.124 73.5196 180.124 72.0275ZM185.465 71.4654V70.7903C184.776 70.5853 184.062 70.481 183.343 70.4803C181.992 70.4803 181.221 71.0713 181.221 71.9434V71.9697C181.221 72.8839 182.063 73.4197 183.057 73.4197C184.382 73.4224 185.465 72.6185 185.465 71.4654Z" fill="white"/>
<path d="M188.842 72.2114V67.822H187.829V66.8632H188.842V64.6671H189.923V66.8632H192.234V67.822H189.928V72.0696C189.928 72.9574 190.421 73.2805 191.153 73.2805C191.519 73.2783 191.879 73.1882 192.202 73.0178V73.9451C191.798 74.1572 191.347 74.2638 190.891 74.2551C189.728 74.2656 188.842 73.6903 188.842 72.2114Z" fill="white"/>
<path d="M193.889 64.7538H195.119V65.9516H193.884L193.889 64.7538ZM193.96 66.8553H195.041V74.1316H193.96V66.8553Z" fill="white"/>
<path d="M196.826 70.5381V70.5092C196.823 69.5032 197.218 68.5368 197.926 67.8228C198.633 67.1087 199.595 66.7054 200.6 66.7016C201.605 66.6977 202.57 67.0937 203.283 67.8023C203.996 68.511 204.399 69.4743 204.403 70.4803V70.5092C204.406 71.0101 204.309 71.5066 204.118 71.9697C203.928 72.4329 203.647 72.8534 203.292 73.2069C202.938 73.5604 202.517 73.8397 202.053 74.0287C201.59 74.2177 201.094 74.3125 200.594 74.3076C200.097 74.3139 199.605 74.2208 199.145 74.0336C198.685 73.8465 198.268 73.5691 197.917 73.2178C197.566 72.8665 197.288 72.4485 197.101 71.9883C196.914 71.5281 196.82 71.035 196.826 70.5381ZM203.293 70.5381V70.5092C203.293 68.9462 202.126 67.6669 200.594 67.6669C199.02 67.6669 197.936 68.9462 197.936 70.4803V70.5092C197.936 72.0695 199.088 73.3383 200.622 73.3383C202.157 73.3383 203.293 72.0695 203.293 70.5381Z" fill="white"/>
<path d="M206.077 66.8632H207.161V68.1293C207.405 67.6865 207.766 67.3197 208.205 67.069C208.643 66.8183 209.143 66.6935 209.648 66.7082C211.405 66.7082 212.431 67.8903 212.431 69.6214V74.1395H211.347V69.8893C211.347 68.5391 210.618 67.6933 209.338 67.6933C208.058 67.6933 207.161 68.6074 207.161 69.9734V74.1395H206.077V66.8632Z" fill="white"/>
<path d="M144.383 77.0868H145.492V86.9427H144.383V77.0868Z" fill="white"/>
<path d="M147.911 79.6612H148.995V80.9273C149.239 80.4845 149.6 80.1176 150.039 79.8669C150.477 79.6163 150.977 79.4914 151.482 79.5062C153.239 79.5062 154.265 80.6883 154.265 82.4193V86.9428H153.181V82.6873C153.181 81.3371 152.452 80.4912 151.172 80.4912C149.892 80.4912 148.995 81.4054 148.995 82.7713V86.9428H147.911V79.6612Z" fill="white"/>
<path d="M155.688 86.0076L156.236 85.2353C156.952 85.8084 157.835 86.1337 158.752 86.1626C159.623 86.1626 160.255 85.7134 160.255 85.0094V84.9805C160.255 84.2502 159.4 83.9691 158.442 83.7012C157.303 83.3781 156.039 82.9841 156.039 81.647V81.6181C156.039 80.3651 157.088 79.535 158.513 79.535C159.444 79.5473 160.352 79.8203 161.136 80.3231L160.635 81.1637C159.998 80.7321 159.253 80.4882 158.484 80.4597C157.629 80.4597 157.081 80.9115 157.081 81.5104V81.5393C157.081 82.2275 157.978 82.4955 158.948 82.7923C160.074 83.1286 161.281 83.5646 161.281 84.8728V84.9017C161.281 86.2808 160.142 87.0846 158.697 87.0846C157.603 87.065 156.546 86.6866 155.688 86.0076Z" fill="white"/>
<path d="M163.25 85.0094V80.6199H162.237V79.6611H163.25V77.4651H164.333V79.6611H166.637V80.6199H164.333V84.8675C164.333 85.7554 164.824 86.0785 165.556 86.0785C165.922 86.0757 166.281 85.9856 166.605 85.8158V86.7457C166.2 86.9549 165.749 87.0605 165.294 87.0531C164.137 87.0636 163.25 86.4883 163.25 85.0094Z" fill="white"/>
<path d="M168.298 77.4651H169.536V78.6629H168.298V77.4651ZM168.369 79.6611H169.45V86.9427H168.361L168.369 79.6611Z" fill="white"/>
<path d="M172.065 85.0094V80.6199H171.055V79.6611H172.065V77.4651H173.148V79.6611H175.444V80.6199H173.138V84.8675C173.138 85.7554 173.628 86.0785 174.36 86.0785C174.726 86.0757 175.086 85.9856 175.409 85.8158V86.7457C175.004 86.9552 174.554 87.0608 174.098 87.0531C172.951 87.0636 172.065 86.4883 172.065 85.0094Z" fill="white"/>
<path d="M176.974 84.1793V79.6611H178.068V83.9114C178.068 85.2642 178.8 86.1074 180.077 86.1074C181.315 86.1074 182.257 85.1933 182.257 83.8273V79.6611H183.314V86.9427H182.247V85.6766C182 86.118 181.638 86.4837 181.199 86.7342C180.761 86.9846 180.262 87.1103 179.757 87.0977C177.999 87.0925 176.974 85.9104 176.974 84.1793Z" fill="white"/>
<path d="M185.843 85.0094V80.6199H184.833V79.6611H185.843V77.4651H186.926V79.6611H189.232V80.6199H186.926V84.8675C186.926 85.7554 187.417 86.0785 188.149 86.0785C188.515 86.0757 188.874 85.9856 189.198 85.8158V86.7457C188.793 86.9552 188.342 87.0608 187.887 87.0531C186.724 87.0636 185.843 86.4883 185.843 85.0094Z" fill="white"/>
<path d="M193.857 86.1547C194.291 86.1592 194.72 86.0697 195.116 85.8924C195.512 85.7151 195.865 85.4542 196.15 85.1276L196.825 85.7344C196.461 86.174 196.003 86.5253 195.485 86.7614C194.966 86.9976 194.401 87.1126 193.831 87.0977C191.835 87.0977 190.203 85.5637 190.203 83.2993C190.203 81.1979 191.68 79.4983 193.69 79.4983C195.841 79.4983 197.076 81.2162 197.076 83.3545C197.076 83.4543 197.076 83.5673 197.076 83.7354H191.305C191.447 85.2773 192.58 86.1547 193.857 86.1547ZM195.98 82.8633C195.854 81.5499 195.096 80.4151 193.661 80.4151C192.409 80.4151 191.454 81.4658 191.3 82.8633H195.98Z" fill="white"/>
<path d="M91.8525 115V111.089C102.999 111.089 112.637 107.088 120.502 99.1917C128.367 91.2954 132.386 81.6601 132.386 70.5013C132.386 59.3425 128.388 49.7072 120.505 41.811C112.622 33.9147 102.978 29.9114 91.8525 29.9114V26C104.051 26 114.621 30.3895 123.265 39.0449C131.909 47.7003 136.29 58.2839 136.29 70.5013C136.29 82.7188 131.909 93.3233 123.262 101.958C114.615 110.592 104.072 115 91.8525 115Z" fill="white"/>
</g>
<defs>
<clipPath id="clip0_145_29440">
<rect width="153" height="89" fill="white" transform="translate(65 26)"/>
</clipPath>
</defs>
</svg>