<svg xmlns="http://www.w3.org/2000/svg" width="284" height="140" viewBox="0 0 284 140" fill="none">
<g clip-path="url(#clip0_173_31462)">
<path d="M73.7964 83.4488C76.2135 83.4488 78.1729 81.4839 78.1729 79.0602C78.1729 76.6364 76.2135 74.6716 73.7964 74.6716C71.3794 74.6716 69.4199 76.6364 69.4199 79.0602C69.4199 81.4839 71.3794 83.4488 73.7964 83.4488Z" fill="white"/>
<path d="M86.481 86.8562C88.8981 86.8562 90.8574 84.8914 90.8574 82.4677C90.8574 80.0439 88.8981 78.0791 86.481 78.0791C84.0639 78.0791 82.1045 80.0439 82.1045 82.4677C82.1045 84.8914 84.0639 86.8562 86.481 86.8562Z" fill="white"/>
<path d="M95.7622 77.5457C98.1793 77.5457 100.139 75.5809 100.139 73.1571C100.139 70.7334 98.1793 68.7686 95.7622 68.7686C93.3451 68.7686 91.3857 70.7334 91.3857 73.1571C91.3857 75.5809 93.3451 77.5457 95.7622 77.5457Z" fill="white"/>
<path d="M92.3657 64.8288C94.7828 64.8288 96.7422 62.864 96.7422 60.4403C96.7422 58.0166 94.7828 56.0518 92.3657 56.0518C89.9487 56.0518 87.9893 58.0166 87.9893 60.4403C87.9893 62.864 89.9487 64.8288 92.3657 64.8288Z" fill="white"/>
<path d="M79.6831 61.4214C82.1001 61.4214 84.0596 59.4566 84.0596 57.0329C84.0596 54.6092 82.1001 52.6443 79.6831 52.6443C77.266 52.6443 75.3066 54.6092 75.3066 57.0329C75.3066 59.4566 77.266 61.4214 79.6831 61.4214Z" fill="white"/>
<path d="M70.395 70.7298C72.812 70.7298 74.7715 68.7649 74.7715 66.3412C74.7715 63.9174 72.812 61.9526 70.395 61.9526C67.9779 61.9526 66.0186 63.9174 66.0186 66.3412C66.0186 68.7649 67.9779 70.7298 70.395 70.7298Z" fill="white"/>
<path d="M73.9069 93.3426C75.9222 93.3426 77.556 91.7043 77.556 89.6834C77.556 87.6624 75.9222 86.0242 73.9069 86.0242C71.8916 86.0242 70.2578 87.6624 70.2578 89.6834C70.2578 91.7043 71.8916 93.3426 73.9069 93.3426Z" fill="white"/>
<path d="M95.7077 91.3457C97.723 91.3457 99.3568 89.7074 99.3568 87.6865C99.3568 85.6656 97.723 84.0273 95.7077 84.0273C93.6924 84.0273 92.0586 85.6656 92.0586 87.6865C92.0586 89.7074 93.6924 91.3457 95.7077 91.3457Z" fill="white"/>
<path d="M104.884 71.4119C106.9 71.4119 108.534 69.7736 108.534 67.7527C108.534 65.7318 106.9 64.0935 104.884 64.0935C102.869 64.0935 101.235 65.7318 101.235 67.7527C101.235 69.7736 102.869 71.4119 104.884 71.4119Z" fill="white"/>
<path d="M92.2595 53.4766C94.2748 53.4766 95.9085 51.8383 95.9085 49.8174C95.9085 47.7965 94.2748 46.1582 92.2595 46.1582C90.2441 46.1582 88.6104 47.7965 88.6104 49.8174C88.6104 51.8383 90.2441 53.4766 92.2595 53.4766Z" fill="white"/>
<path d="M70.4489 55.4729C72.4643 55.4729 74.098 53.8346 74.098 51.8137C74.098 49.7928 72.4643 48.1545 70.4489 48.1545C68.4336 48.1545 66.7998 49.7928 66.7998 51.8137C66.7998 53.8346 68.4336 55.4729 70.4489 55.4729Z" fill="white"/>
<path d="M61.278 75.4072C63.2933 75.4072 64.9271 73.7689 64.9271 71.748C64.9271 69.7271 63.2933 68.0889 61.278 68.0889C59.2627 68.0889 57.6289 69.7271 57.6289 71.748C57.6289 73.7689 59.2627 75.4072 61.278 75.4072Z" fill="white"/>
<path d="M78.1697 102.501C79.5745 102.501 80.7134 101.359 80.7134 99.9501C80.7134 98.5414 79.5745 97.3994 78.1697 97.3994C76.7649 97.3994 75.626 98.5414 75.626 99.9501C75.626 101.359 76.7649 102.501 78.1697 102.501Z" fill="white"/>
<path d="M106.707 91.6649C108.112 91.6649 109.25 90.523 109.25 89.1142C109.25 87.7055 108.112 86.5635 106.707 86.5635C105.302 86.5635 104.163 87.7055 104.163 89.1142C104.163 90.523 105.302 91.6649 106.707 91.6649Z" fill="white"/>
<path d="M111.617 61.4644C113.022 61.4644 114.161 60.3224 114.161 58.9138C114.161 57.505 113.022 56.363 111.617 56.363C110.212 56.363 109.073 57.505 109.073 58.9138C109.073 60.3224 110.212 61.4644 111.617 61.4644Z" fill="white"/>
<path d="M87.989 42.1014C89.3939 42.1014 90.5327 40.9594 90.5327 39.5507C90.5327 38.142 89.3939 37 87.989 37C86.5842 37 85.4453 38.142 85.4453 39.5507C85.4453 40.9594 86.5842 42.1014 87.989 42.1014Z" fill="white"/>
<path d="M59.4538 52.9368C60.8587 52.9368 61.9975 51.7948 61.9975 50.3861C61.9975 48.9774 60.8587 47.8354 59.4538 47.8354C58.049 47.8354 56.9102 48.9774 56.9102 50.3861C56.9102 51.7948 58.049 52.9368 59.4538 52.9368Z" fill="white"/>
<path d="M54.5437 83.1373C55.9485 83.1373 57.0874 81.9954 57.0874 80.5866C57.0874 79.1779 55.9485 78.0359 54.5437 78.0359C53.1388 78.0359 52 79.1779 52 80.5866C52 81.9954 53.1388 83.1373 54.5437 83.1373Z" fill="white"/>
<path d="M134.102 67.8806H131.148L124.998 52.5166H128.692L132.67 63.2592L136.648 52.5166H140.256L134.106 67.8806H134.102Z" fill="white"/>
<path d="M142.602 67.7714V52.5166H154.077V55.5021H145.928V58.5967H153.099V61.5821H145.928V64.786H154.186V67.7714H142.604H142.602Z" fill="white"/>
<path d="M167.832 67.7714L160.464 58.0734V67.7714H157.16V52.5166H160.246L167.374 61.9097V52.5166H170.678V67.7714H167.83H167.832Z" fill="white"/>
<path d="M181.215 55.6112V67.7714H177.868V55.6112H173.239V52.5166H185.845V55.6112H181.215Z" fill="white"/>
<path d="M194.754 68.0104C190.67 68.0104 188.169 65.7235 188.169 61.2339V52.5166H191.516V61.1453C191.516 63.6301 192.755 64.9157 194.798 64.9157C196.84 64.9157 198.079 63.6734 198.079 61.2546V52.5166H201.426V61.1247C201.426 65.744 198.839 68.0104 194.754 68.0104Z" fill="white"/>
<path d="M214.075 67.7714L210.814 62.8904H208.184V67.7714H204.837V52.5166H211.792C215.378 52.5166 217.529 54.4121 217.529 57.5501V57.5933C217.529 60.0554 216.204 61.6027 214.268 62.3218L217.985 67.7694H214.073L214.075 67.7714ZM214.141 57.7251C214.141 56.287 213.14 55.5453 211.511 55.5453H208.187V59.9256H211.576C213.206 59.9256 214.141 59.0541 214.141 57.7684V57.7251Z" fill="white"/>
<path d="M220.551 67.7714V52.5166H232.027V55.5021H223.877V58.5967H231.048V61.5821H223.877V64.786H232.135V67.7714H220.553H220.551Z" fill="white"/>
<path d="M137.975 83.3044C137.664 84.0297 137.237 84.6643 136.694 85.2082C136.152 85.7522 135.505 86.1848 134.751 86.5041C133.999 86.8235 133.181 86.9822 132.297 86.9822C131.414 86.9822 130.623 86.8256 129.877 86.5145C129.131 86.2034 128.488 85.7748 127.946 85.2309C127.403 84.687 126.98 84.0565 126.676 83.3374C126.372 82.6184 126.22 81.8458 126.22 81.0195C126.22 80.1933 126.376 79.4124 126.686 78.679C126.996 77.9455 127.424 77.3089 127.966 76.7628C128.509 76.2189 129.152 75.7863 129.898 75.4689C130.643 75.1496 131.457 74.991 132.338 74.991C133.22 74.991 134.036 75.1475 134.779 75.4586C135.525 75.7718 136.168 76.1983 136.711 76.7422C137.253 77.2862 137.677 77.9208 137.981 78.646C138.285 79.3713 138.437 80.148 138.437 80.9742C138.437 81.8004 138.281 82.5771 137.97 83.3024L137.975 83.3044ZM135.534 79.5834C135.361 79.1343 135.121 78.7387 134.81 78.3967C134.502 78.0568 134.134 77.7868 133.711 77.5911C133.286 77.3954 132.815 77.2965 132.3 77.2965C131.784 77.2965 131.311 77.3954 130.886 77.5911C130.461 77.7868 130.099 78.0526 129.797 78.3864C129.495 78.7201 129.265 79.1075 129.107 79.5505C128.948 79.9935 128.87 80.4694 128.87 80.9763C128.87 81.4831 128.957 81.9673 129.129 82.4246C129.302 82.882 129.542 83.2777 129.852 83.6114C130.163 83.9453 130.528 84.211 130.952 84.4067C131.375 84.6025 131.839 84.7014 132.343 84.7014C132.875 84.7014 133.354 84.6025 133.777 84.4067C134.2 84.211 134.564 83.9473 134.866 83.6114C135.168 83.2777 135.398 82.8903 135.556 82.4473C135.714 82.0043 135.794 81.5305 135.794 81.0216C135.794 80.5126 135.708 80.0347 135.536 79.5855L135.534 79.5834Z" fill="white"/>
<path d="M143.763 86.7226H141.114V75.23H143.763V77.0327C143.95 76.7546 144.156 76.495 144.379 76.2539C144.603 76.0128 144.862 75.7965 145.159 75.607C145.454 75.4174 145.779 75.267 146.132 75.1558C146.485 75.0465 146.886 74.991 147.334 74.991C148.632 74.991 149.635 75.3906 150.342 76.188C151.049 76.9854 151.403 78.0588 151.403 79.4084V86.7226H148.753V80.2077C148.753 79.3094 148.542 78.6192 148.119 78.133C147.696 77.6488 147.098 77.4057 146.323 77.4057C145.548 77.4057 144.946 77.6549 144.472 78.1557C143.999 78.6563 143.761 79.3548 143.761 80.251V86.7226H143.763Z" fill="white"/>
<path d="M157.698 84.077C158.292 84.5777 159.015 84.827 159.868 84.827C160.519 84.827 161.084 84.7116 161.561 84.4788C162.037 84.248 162.508 83.906 162.973 83.4548L164.513 84.827C163.963 85.4801 163.31 86.0014 162.549 86.3949C161.789 86.7863 160.88 86.9821 159.825 86.9821C159.001 86.9821 158.23 86.8379 157.513 86.5473C156.796 86.2569 156.173 85.851 155.648 85.3277C155.12 84.8063 154.702 84.178 154.401 83.4445C154.096 82.711 153.944 81.8951 153.944 80.9967C153.944 80.1706 154.082 79.3938 154.357 78.6686C154.633 77.9434 155.019 77.3087 155.518 76.7648C156.018 76.2209 156.607 75.7882 157.287 75.4709C157.967 75.1516 158.72 74.9929 159.545 74.9929C160.458 74.9929 161.257 75.1598 161.943 75.4936C162.63 75.8274 163.202 76.2765 163.659 76.8431C164.115 77.4097 164.458 78.069 164.69 78.8231C164.922 79.5772 165.037 80.3684 165.037 81.1967C165.037 81.312 165.033 81.4295 165.027 81.5448C165.019 81.6602 165.009 81.7839 164.994 81.9136H156.572C156.73 82.8573 157.106 83.5784 157.7 84.079L157.698 84.077ZM162.43 80.1706C162.387 79.7503 162.292 79.3547 162.148 78.9838C162.004 78.6129 161.807 78.2957 161.563 78.0258C161.316 77.7579 161.025 77.5436 160.684 77.3829C160.343 77.2243 159.956 77.1439 159.522 77.1439C158.713 77.1439 158.043 77.4242 157.515 77.9825C156.988 78.5409 156.665 79.2702 156.549 80.1706H162.432H162.43Z" fill="white"/>
</g>
<defs>
<clipPath id="clip0_173_31462">
<rect width="181" height="66" fill="white" transform="translate(52 37)"/>
</clipPath>
</defs>
</svg>