<svg xmlns="http://www.w3.org/2000/svg" width="284" height="140" viewBox="0 0 284 140" fill="none">
<g clip-path="url(#clip0_145_29498)">
<path d="M121.877 85.9375C121.587 85.9375 121.37 85.7909 121.225 85.4978L118.687 79.8556H106.869L104.331 85.4978C104.186 85.7177 103.969 85.9375 103.679 85.9375H102.011C101.649 85.9375 101.286 85.6444 101.286 85.2047C101.286 85.1315 101.286 84.9849 101.359 84.9116L111.364 63.0022C111.509 62.7823 111.727 62.5625 112.017 62.5625H113.539C113.829 62.5625 114.047 62.7091 114.192 63.0022L124.198 84.9116C124.343 85.278 124.198 85.7177 123.835 85.8642C123.763 85.9375 123.618 85.9375 123.545 85.9375H121.877ZM108.174 76.9978H117.31L112.742 66.8125L108.174 76.9978Z" fill="white"/>
<path d="M139.613 85.9375C136.161 85.9375 133.485 84.8587 130.738 82.3413C130.456 82.0537 130.456 81.6221 130.667 81.3344L131.653 80.1117C131.794 79.9679 131.935 79.896 132.146 79.896C132.358 79.896 132.499 79.9679 132.639 80.1117C134.893 82.2694 136.866 83.1325 139.683 83.1325C142.36 83.1325 144.262 81.694 144.262 79.6083C144.262 78.026 143.839 76.7313 138.908 75.6525C135.175 74.8613 131.301 73.4948 131.301 68.9637C131.301 65.2956 134.471 62.5625 138.697 62.5625C141.726 62.5625 143.909 63.3537 146.304 65.2956C146.445 65.4394 146.516 65.5833 146.586 65.799C146.586 66.0148 146.516 66.1587 146.445 66.3025L145.459 67.5252C145.318 67.669 145.177 67.741 144.966 67.8129C144.755 67.8129 144.614 67.741 144.473 67.669C142.923 66.1587 140.81 65.3675 138.697 65.4394C136.161 65.4394 134.26 66.806 134.26 68.7479C134.26 70.4021 134.682 71.6967 139.824 72.7756C143.275 73.4948 147.22 74.8613 147.22 79.3925C147.22 83.1325 143.98 85.9375 139.613 85.9375Z" fill="white"/>
<path d="M156.273 85.8638C155.922 85.8638 155.571 85.5688 155.571 85.1264V63.2999C155.571 62.9312 155.852 62.5625 156.273 62.5625H163.853C168.976 62.5625 172.275 65.4383 172.275 70.0101C172.275 74.6556 168.695 77.7526 163.432 77.7526H158.449V85.2001C158.449 85.5688 158.168 85.9375 157.747 85.9375H156.273V85.8638ZM158.519 74.803H163.572C167.081 74.803 169.397 72.9596 169.397 70.1575C169.397 65.9545 165.467 65.512 163.783 65.512H158.589V74.803H158.519Z" fill="white"/>
<path d="M181.372 85.8638C180.999 85.8638 180.626 85.5688 180.626 85.1264V63.2999C180.626 62.9312 180.924 62.5625 181.372 62.5625H183.012C183.385 62.5625 183.758 62.8575 183.758 63.2999V85.2001C183.758 85.5688 183.46 85.9375 183.012 85.9375H181.372V85.8638Z" fill="white"/>
<path d="M209.225 85.9375C209.011 85.9375 208.796 85.8635 208.654 85.6416L202.082 76.839H196.154V85.1978C196.154 85.5676 195.868 85.9375 195.44 85.9375H193.869C193.511 85.9375 193.154 85.6416 193.154 85.1978V63.3022C193.154 62.9324 193.44 62.5625 193.869 62.5625H202.868C205.582 62.5625 207.868 63.3762 209.368 64.9296C210.511 66.1871 211.153 67.8145 211.153 69.5898C211.153 72.7706 209.296 75.2116 206.154 76.1733L205.511 76.3952L211.796 84.8279C211.939 85.0498 212.01 85.3457 211.868 85.5676C211.725 85.7896 211.511 85.9375 211.225 85.9375H209.225ZM196.226 73.9541H202.654C205.154 73.9541 208.154 72.8445 208.154 69.6638C208.154 67.0748 206.154 65.5214 202.797 65.5214H196.226V73.9541Z" fill="white"/>
<path d="M221.011 85.8638C220.654 85.8638 220.297 85.5688 220.297 85.1264V63.2999C220.297 62.9312 220.582 62.5625 221.011 62.5625H236.144C236.501 62.5625 236.857 62.8575 236.857 63.2999V64.7746C236.857 65.1433 236.572 65.512 236.144 65.512H223.295V72.6646H234.716C235.073 72.6646 235.43 72.9596 235.43 73.402V74.8768C235.43 75.2455 235.144 75.6142 234.716 75.6142H223.295V82.988H236.286C236.643 82.988 237 83.2829 237 83.7254V85.2001C237 85.5688 236.715 85.9375 236.286 85.9375L221.011 85.8638Z" fill="white"/>
<path d="M82.9064 78.16L74.1426 62.5625V83.3592C75.5448 85.8144 78.6296 86.6809 81.0134 85.2367C83.3971 83.7925 84.2385 80.6152 82.9064 78.16Z" fill="white"/>
<path d="M52.0411 87H69.967L52.0411 76.375C49.1614 76.4488 46.9297 78.8837 47.0017 81.8351C47.0737 84.6389 49.2334 86.9262 52.0411 87Z" fill="white"/>
<path d="M61.332 55.4939L52.2197 71.0625L70.3714 60.6835C71.7564 58.1608 70.8088 54.9894 68.3302 53.62C65.8517 52.3226 62.79 53.1154 61.332 55.4939Z" fill="white"/>
</g>
<defs>
<clipPath id="clip0_145_29498">
<rect width="190" height="34" fill="white" transform="translate(47 53)"/>
</clipPath>
</defs>
</svg>