<svg xmlns="http://www.w3.org/2000/svg" width="226" height="75" viewBox="0 0 226 75" fill="none">
<path d="M151.946 41.1149C148.877 41.1149 146.455 40.2807 144.638 38.5726C142.862 36.9041 142.014 35.0371 142.014 32.8919V23.0005C142.014 20.7759 142.862 18.9089 144.638 17.2802C146.455 15.6118 148.837 14.8173 151.986 14.8173H171.083C174.273 14.8173 176.655 15.6118 178.432 17.2802C180.208 18.9089 181.056 20.7362 181.056 22.9211V32.9317C181.056 35.0371 180.208 36.8644 178.432 38.5328C176.615 40.241 174.233 41.0752 171.124 41.0752L151.946 41.1149ZM154.166 17.9952C152.228 17.9952 150.573 18.5514 149.321 19.6239C148.029 20.7362 147.343 22.2458 147.262 24.0334V31.7002C147.262 33.4878 147.989 35.0371 149.362 36.1096C150.654 37.1425 152.269 37.6986 154.166 37.6986H168.863C170.841 37.6589 172.496 37.1425 173.708 36.0699C175.04 34.9973 175.767 33.4481 175.767 31.6208V24.0731C175.726 22.206 175 20.6568 173.708 19.5842C172.456 18.5116 170.841 17.9952 168.863 17.9952H154.166Z" fill="#F9F9F9"/>
<path d="M48.6679 41.1149L33.1641 14.8173H39.1799L50.1214 34.1631C50.6059 35.0371 51.5345 35.5535 52.5439 35.5535C53.5532 35.5535 54.4818 34.9973 54.9663 34.1631L65.9078 14.8173H71.6814L56.2179 41.1149H48.6679Z" fill="#F9F9F9"/>
<path d="M107.736 41.1149L95.8657 29.3167C95.3408 28.8003 94.6545 28.5222 93.8874 28.5222H88.8002C87.2659 28.5222 86.0143 29.7537 86.0143 31.2632L86.0547 41.1149H80.7656V14.8173H107.211C110.36 14.8173 112.863 15.6118 114.438 17.0816C116.053 18.5911 116.82 20.339 116.86 22.4841C116.86 23.9936 116.457 25.1854 115.528 26.099C113.267 28.3236 108.705 28.5222 107.372 28.5222H101.155L114.519 41.1149H107.736ZM86.0951 26.4963C86.0951 26.4963 106.646 26.4963 106.686 26.4963C107.736 26.4963 109.835 26.4566 111.047 24.9868C111.531 24.3909 112.096 23.358 111.814 21.7293C111.37 19.3061 109.714 18.1144 106.807 18.1144H86.0547L86.0951 26.4963Z" fill="#F9F9F9"/>
<path d="M126.874 41.1149V14.8173H132.082V41.1149H126.874Z" fill="#F9F9F9"/>
<path d="M200.88 41.1149C197.771 41.1149 195.389 40.2807 193.572 38.5726C191.796 36.9041 190.948 35.0371 190.948 32.9317V24.3909C190.948 20.0212 192.845 14.8173 201.849 14.8173H205.886V14.9364L207.663 14.857L208.147 14.8173H225.105V18.1144H203.222C197.569 18.1541 196.237 22.643 196.237 24.3909V31.6605C196.237 33.4481 196.964 34.9973 198.296 36.1096C199.628 37.1425 201.243 37.6986 203.1 37.6986H225.145V41.0752H200.88V41.1149Z" fill="#F9F9F9"/>
<path d="M62.0317 53.3104H58.8018V52.6748H65.9481V53.3104H62.7181V61.7717H62.0317V53.3104Z" fill="#F9F9F9"/>
<path d="M68.0474 52.7145H74.6284V53.3501H68.7337V56.9253H74.0228V57.5609H68.7337V61.2156H74.6688V61.8512H68.0474V52.7145Z" fill="#F9F9F9"/>
<path d="M76.4858 57.2828C76.4858 54.7007 78.4238 52.5556 81.0885 52.5556C82.7439 52.5556 83.7129 53.1515 84.6819 54.0254L84.1974 54.5021C83.3899 53.7473 82.4613 53.1515 81.0885 53.1515C78.8679 53.1515 77.2126 54.9391 77.2126 57.2034V57.2431C77.2126 59.5471 78.9083 61.3347 81.1289 61.3347C82.4613 61.3347 83.3899 60.8183 84.3185 59.9046L84.7626 60.3416C83.7936 61.295 82.7439 61.9306 81.0885 61.9306C78.4238 61.9306 76.4858 59.8649 76.4858 57.2828Z" fill="#F9F9F9"/>
<path d="M86.6196 52.7145H87.306V56.9253H93.2411V52.7145H93.9274V61.8114H93.2411V57.5609H87.3464V61.8114H86.66V52.7145H86.6196Z" fill="#F9F9F9"/>
<path d="M96.6733 52.7145H97.3193L103.699 60.6197V52.7145H104.345V61.8114H103.82L97.3193 53.7473V61.8114H96.6733V52.7145Z" fill="#F9F9F9"/>
<path d="M106.686 57.2828C106.686 54.7802 108.543 52.5556 111.329 52.5556C114.115 52.5556 115.972 54.7405 115.972 57.2431C115.972 57.2431 115.972 57.2431 115.972 57.2828C115.972 59.7457 114.115 61.9703 111.329 61.9703C108.503 61.9306 106.686 59.7457 106.686 57.2828ZM115.245 57.2828C115.245 55.0185 113.59 53.1515 111.289 53.1515C108.987 53.1515 107.372 54.9788 107.372 57.2034V57.2431C107.372 59.5074 109.028 61.3347 111.329 61.3347C113.63 61.3347 115.245 59.5074 115.245 57.2828Z" fill="#F9F9F9"/>
<path d="M118.314 52.7145H119V61.1758H124.411V61.8114H118.314V52.7145Z" fill="#F9F9F9"/>
<path d="M125.541 57.2828C125.541 54.7802 127.398 52.5556 130.184 52.5556C132.97 52.5556 134.827 54.7405 134.827 57.2034C134.827 57.2034 134.827 57.2034 134.827 57.2431C134.827 59.706 132.97 61.9306 130.184 61.9306C127.398 61.9306 125.541 59.7457 125.541 57.2828ZM134.141 57.2828C134.141 55.0185 132.485 53.1515 130.184 53.1515C127.883 53.1515 126.268 54.9788 126.268 57.2034V57.2431C126.268 59.5074 127.923 61.3347 130.224 61.3347C132.526 61.3347 134.141 59.5074 134.141 57.2828Z" fill="#F9F9F9"/>
<path d="M136.765 57.2828C136.765 54.8199 138.582 52.5556 141.327 52.5556C142.821 52.5556 143.79 52.9926 144.719 53.7473L144.275 54.2638C143.548 53.6282 142.7 53.1912 141.287 53.1912C139.026 53.1912 137.452 55.0583 137.452 57.2431V57.2828C137.452 59.6266 138.945 61.3745 141.408 61.3745C142.579 61.3745 143.669 60.8978 144.356 60.3416V57.7198H141.287V57.0842H145.042V60.58C144.194 61.295 142.902 61.9306 141.408 61.9306C138.501 61.9306 136.765 59.8252 136.765 57.2828Z" fill="#F9F9F9"/>
<path d="M147.626 52.7145H148.312V61.8114H147.626V52.7145Z" fill="#F9F9F9"/>
<path d="M151.138 52.7145H157.719V53.3501H151.825V56.9253H157.114V57.5609H151.825V61.2156H157.76V61.8512H151.138V52.7145Z" fill="#F9F9F9"/>
<path d="M159.375 60.4608L159.819 59.9444C160.828 60.858 161.757 61.295 163.13 61.295C164.503 61.295 165.472 60.5402 165.472 59.5074V59.4677C165.472 58.5143 164.947 57.9581 162.847 57.5212C160.627 57.0842 159.738 56.3294 159.738 54.9788V54.9391C159.738 53.5884 160.99 52.5556 162.726 52.5556C164.058 52.5556 164.947 52.9131 165.875 53.6679L165.431 54.1843C164.543 53.4295 163.695 53.1515 162.686 53.1515C161.313 53.1515 160.425 53.9062 160.425 54.8596V54.8994C160.425 55.8527 160.909 56.4486 163.13 56.8856C165.27 57.3225 166.158 58.0773 166.158 59.3882V59.428C166.158 60.8978 164.866 61.8909 163.089 61.8909C161.636 61.9306 160.505 61.4539 159.375 60.4608Z" fill="#F9F9F9"/>
<mask id="mask0_3415_1716" style="mask-type:luminance" maskUnits="userSpaceOnUse" x="0" y="15" width="29" height="29">
<path d="M6.6919 43.2142C5.35283 43.2142 3.97319 43.2142 2.59354 43.1741C1.61967 42.9738 0.808113 42.3727 0.361756 41.5312C-0.0846001 40.6897 -0.125177 39.6479 0.280602 38.8064L13.0626 16.7671C14.3205 15.0842 15.8625 14.6033 17.6073 15.3246C18.5001 15.8054 19.2305 16.4466 19.758 17.2079L20.7724 18.931L28.2387 31.313C21.9898 24.0201 17.3233 24.4208 15.0509 28.7885L8.88311 39.4475C7.90924 41.0904 9.32946 43.2142 11.2366 43.2142C9.73524 43.2142 8.23386 43.2142 6.6919 43.2142Z" fill="white"/>
</mask>
<g mask="url(#mask0_3415_1716)">
<path d="M19.6784 56.0769L41.5498 23.2585L8.47888 1.74023L-13.3926 34.5586L19.6784 56.0769Z" fill="url(#paint0_linear_3415_1716)"/>
</g>
<mask id="mask1_3415_1716" style="mask-type:luminance" maskUnits="userSpaceOnUse" x="15" y="35" width="13" height="9">
<path d="M19.3497 43.374C17.1585 43.374 15.373 41.6109 15.373 39.447C15.373 37.2832 17.1585 35.52 19.3497 35.52H23.7727C25.9639 35.52 27.7493 37.2832 27.7493 39.447C27.7493 41.6109 25.9639 43.374 23.7727 43.374C23.7727 43.374 19.3497 43.374 19.3497 43.374Z" fill="white"/>
</mask>
<g mask="url(#mask1_3415_1716)">
<path d="M24.0173 49.0242L31.4431 37.8844L19.1074 29.8701L11.6816 40.9699L24.0173 49.0242Z" fill="url(#paint1_linear_3415_1716)"/>
</g>
<defs>
<linearGradient id="paint0_linear_3415_1716" x1="5.14612" y1="42.2527" x2="19.9567" y2="19.4938" gradientUnits="userSpaceOnUse">
<stop stop-color="#FF9019"/>
<stop offset="1" stop-color="#FF3F84"/>
</linearGradient>
<linearGradient id="paint1_linear_3415_1716" x1="18.4386" y1="44.1202" x2="23.7914" y2="35.8947" gradientUnits="userSpaceOnUse">
<stop stop-color="#FF9019"/>
<stop offset="1" stop-color="#FF3F84"/>
</linearGradient>
</defs>
<script xmlns=""/></svg>