<svg xmlns="http://www.w3.org/2000/svg" width="181" height="36" viewBox="0 0 181 36" fill="none">
<g filter="url(#filter0_d_2514_42485)">
<path fill-rule="evenodd" clip-rule="evenodd" d="M42.9465 0.714026C43.5786 0.255009 44.3079 0 45.0372 0H48.3921C48.8783 0 49.2673 0.408016 49.2673 0.918034V27.082C49.2673 27.592 48.8783 28 48.3921 28H46.8848C45.4748 28 44.3079 26.776 44.3079 25.2969V6.17122L31.4719 16.6266C30.2078 17.6466 28.2143 18.2077 26.6098 18.2077C25.0053 18.2077 23.0118 17.6466 21.7477 16.6266L8.91171 6.17122V25.2969C8.91171 26.776 7.79343 28 6.38341 28H4.82754C4.34132 28 4.00098 27.592 4.00098 27.082V0.918034C4.00098 0.408016 4.34132 0 4.82754 0H7.59894C8.76585 0 9.83551 0.408016 10.7107 1.12204C11.2649 1.57416 12.0773 2.20009 13.2036 3.0678C15.6348 4.94084 19.5283 7.9405 25.4429 12.7505C26.3667 13.5155 27.2419 13.5155 28.2143 12.7505C30.8592 10.5656 34.9878 7.20174 38.5365 4.31035L38.5378 4.30926C40.2075 2.94884 41.7487 1.69309 42.9465 0.714026ZM64.3574 0C62.9474 0 61.8291 1.17304 61.8291 2.6521V27.082C61.8291 27.592 62.1695 27.949 62.6557 27.949H64.2115C65.6216 27.949 66.7398 26.776 66.7398 25.2969V0.867032C66.7398 0.408016 66.3509 0 65.9133 0H64.3574ZM122.403 25.3479C122.695 25.6029 122.938 25.9089 122.987 26.3169C123.084 27.235 122.452 28 121.625 28H119.34C118.222 28 117.152 27.592 116.277 26.878L105.143 17.9016C104.268 17.1876 103.149 16.7796 102.031 16.7796H83.944C83.7009 16.7796 83.5064 16.9836 83.5064 17.2386V25.2969C83.5064 26.776 82.3882 27.949 80.9781 27.949H79.4223C78.9361 27.949 78.5957 27.592 78.5957 27.082V15.5834H78.5858V2.83291H78.5957V0.867033C78.5957 0.408016 78.9361 0 79.4223 0H115.013C119.535 0 123.181 4.38616 122.987 9.12933C122.841 13.6685 119.146 16.7796 114.818 16.7796H112.533C112.29 16.7796 112.193 17.0856 112.387 17.2386L122.403 25.3479ZM83.9881 5.6102V11.6284H115.402C116.909 11.6284 118.125 10.3534 118.076 8.77232C118.027 7.24226 116.763 5.6102 115.305 5.6102H83.9881ZM130.31 27.949C129.776 27.949 129.484 27.337 129.776 26.929L147.328 2.09108C148.252 0.765027 150.099 0 151.655 0C153.211 0 155.107 0.765027 156.031 2.09108L173.535 26.929C173.875 27.337 173.583 27.949 173.048 27.949H169.791C168.721 27.949 167.7 27.439 167.068 26.5209L151.995 5.20219C151.85 4.94718 151.509 4.94718 151.315 5.20219L136.291 26.5209C135.61 27.439 134.638 27.949 133.568 27.949H130.31Z" fill="#F9FAFB"/>
</g>
<defs>
<filter id="filter0_d_2514_42485" x="0.000976562" y="0" width="177.68" height="36" filterUnits="userSpaceOnUse" color-interpolation-filters="sRGB">
<feFlood flood-opacity="0" result="BackgroundImageFix"/>
<feColorMatrix in="SourceAlpha" type="matrix" values="0 0 0 0 0 0 0 0 0 0 0 0 0 0 0 0 0 0 127 0" result="hardAlpha"/>
<feOffset dy="4"/>
<feGaussianBlur stdDeviation="2"/>
<feComposite in2="hardAlpha" operator="out"/>
<feColorMatrix type="matrix" values="0 0 0 0 0 0 0 0 0 0 0 0 0 0 0 0 0 0 0.25 0"/>
<feBlend mode="normal" in2="BackgroundImageFix" result="effect1_dropShadow_2514_42485"/>
<feBlend mode="normal" in="SourceGraphic" in2="effect1_dropShadow_2514_42485" result="shape"/>
</filter>
</defs>
</svg>