<svg xmlns="http://www.w3.org/2000/svg" width="204" height="39" viewBox="0 0 204 39" fill="none">
<path d="M166.223 20.9154H183.083V15.8164H186.259V28.5548H183.083V23.5662H166.223V28.5548H163.047V15.8164H166.223V20.9154Z" fill="white"/>
<path d="M148.006 15.8164C148.933 15.8164 149.815 16.2161 150.427 16.9132L160.637 28.5548H157.602C157.313 28.5548 157.038 28.4296 156.848 28.2116L152.881 23.6582H143.131L139.145 28.2132C138.956 28.4303 138.681 28.5548 138.393 28.5548H135.375L145.585 16.9132C146.197 16.2161 147.079 15.8164 148.006 15.8164V15.8164ZM152.881 23.6582L148.006 18.0806L143.131 23.6582L148.006 23.6582L152.881 23.6582Z" fill="white"/>
<path d="M130.763 24.3209L133.81 28.5548H130.357L127.79 24.7995H127.513H114.107V28.5548H112.078C111.526 28.5548 111.078 28.1071 111.078 27.5548V16.8164C111.078 16.2641 111.526 15.8164 112.078 15.8164H127.513C132.148 15.8164 133.478 17.8965 133.478 20.3448V20.3632C133.478 22.0567 132.813 23.5846 130.763 24.3209ZM127.513 18.4856H114.107V22.2408H127.513C129.692 22.2408 130.449 21.5781 130.449 20.3632V20.3448C130.449 19.1483 129.692 18.4856 127.513 18.4856Z" fill="white"/>
<path d="M101.121 20.9522L104.325 16.626C104.703 16.1168 105.299 15.8164 105.933 15.8164H108.507L103.669 22.296L108.507 28.5548H105.916C105.292 28.5548 104.703 28.2629 104.325 27.7657L101.158 23.603H88.9887V28.5548H86.8125C86.2602 28.5548 85.8125 28.1071 85.8125 27.5548V15.8164H87.9887C88.541 15.8164 88.9887 16.2641 88.9887 16.8164V20.9522H101.121Z" fill="white"/>
<path d="M61.9688 15.8164H83.1495V18.5408H64.9972V21.6149H81.5614V24.2657H64.9972V28.5548H61.9688V15.8164Z" fill="white"/>
<path d="M40.5403 15.8164H51.62C56.4397 15.8164 59.1173 17.9701 59.1173 22.1856V22.204C59.1173 26.401 56.4397 28.5548 51.62 28.5548H40.5403C35.7206 28.5548 33.043 26.401 33.043 22.204V22.1856C33.043 17.9701 35.7206 15.8164 40.5403 15.8164ZM40.5403 25.8304H51.62C54.7777 25.8304 56.1073 24.6154 56.1073 22.204V22.1856C56.1073 19.7741 54.7777 18.5408 51.62 18.5408H40.5403C37.401 18.5408 36.0714 19.7741 36.0714 22.1856V22.204C36.0714 24.6154 37.401 25.8304 40.5403 25.8304Z" fill="white"/>
<path d="M6.42386 15.8164C6.86799 15.8164 7.2995 15.9642 7.65032 16.2366L17.2101 23.6582L26.7699 16.2366C27.1207 15.9642 27.5522 15.8164 27.9963 15.8164H29.2288C29.7811 15.8164 30.2288 16.2641 30.2288 16.8164V28.5548H28.0526C27.5003 28.5548 27.0526 28.1071 27.0526 27.5548V19.3876L18.2064 26.3476C17.9199 26.573 17.5659 26.6956 17.2013 26.6956V26.6956C16.8362 26.6956 16.4817 26.5726 16.195 26.3466L7.3676 19.3876V27.5548C7.3676 28.1071 6.91988 28.5548 6.3676 28.5548H4.19141V16.8164C4.19141 16.2641 4.63912 15.8164 5.19141 15.8164H6.42386Z" fill="white"/>
<path fill-rule="evenodd" clip-rule="evenodd" d="M184.438 0.821745C184.438 0.367908 184.78 0 185.203 0H191.302C191.712 0 192.049 0.346793 192.067 0.786529C192.147 2.78588 192.504 5.77152 193.299 8.23032C193.491 8.82286 193.704 9.37172 193.938 9.86208C194.516 8.73169 195 7.27936 195.558 5.58387C196.263 3.44333 198.131 2.61682 199.75 2.95266C200.558 3.1203 201.325 3.57923 201.864 4.32332C202.409 5.07586 202.685 6.07131 202.58 7.23416C202.479 8.35963 202.123 9.99765 201.235 11.3785C200.322 12.7967 198.85 13.9286 196.63 13.9286C195.529 13.9286 194.621 13.4078 193.897 12.6327C193.085 13.4367 192.066 13.9286 190.741 13.9286C189.476 13.9286 188.447 13.2438 187.648 12.2811C186.857 11.3274 186.246 10.0518 185.782 8.70966C184.854 6.02476 184.438 2.85563 184.438 0.821745ZM192.952 11.3306C192.51 10.5629 192.149 9.68208 191.853 8.76953C191.095 6.42452 190.716 3.69332 190.58 1.64349H185.99C186.084 3.48454 186.476 5.99305 187.217 8.13757C187.647 9.38027 188.176 10.4463 188.791 11.1879C189.399 11.9207 190.043 12.2851 190.741 12.2851C191.665 12.2851 192.362 11.9571 192.952 11.3306ZM194.882 11.3636C195.419 11.9801 195.993 12.2851 196.63 12.2851C198.28 12.2851 199.308 11.4817 199.975 10.4444C200.667 9.36966 200.97 8.0318 201.056 7.07594C201.127 6.29301 200.94 5.72422 200.656 5.33218C200.366 4.9317 199.939 4.66573 199.459 4.5663C198.504 4.36801 197.427 4.83868 197.001 6.13186L196.987 6.17558C196.352 8.10394 195.737 9.97052 194.882 11.3636Z" fill="url(#paint0_linear_13727_25499)"/>
<defs>
<linearGradient id="paint0_linear_13727_25499" x1="202.602" y1="7.75568" x2="184.438" y2="7.75568" gradientUnits="userSpaceOnUse">
<stop stop-color="#328CF5"/>
<stop offset="1" stop-color="#3A61EA"/>
</linearGradient>
</defs>
</svg>