<svg width="72" height="72" viewBox="0 0 72 72" fill="none" xmlns="http://www.w3.org/2000/svg">
<g clip-path="url(#clip0_4042_62999)">
<path opacity="0.35" d="M19.1623 27.5377C19.5816 30.6599 21.223 37.8356 27.6942 44.3068C34.1653 50.7779 41.3391 52.4193 44.4632 52.8386C46.7261 53.3278 49.1796 52.7064 50.9382 50.9479C53.6883 48.1978 43.7266 38.236 40.9764 40.9862L39.2217 42.7409L29.26 32.7792L31.0128 31.0245C33.763 28.2743 23.8013 18.3126 21.0511 21.0628C19.2926 22.8213 18.6712 25.2749 19.1623 27.5377Z" fill="rgb(45, 85, 255)"/>
<path d="M21.0586 21.0572L31.0184 31.017C33.7629 28.265 33.7629 23.8111 31.0128 21.061C28.2664 18.3146 23.8106 18.3127 21.0586 21.0572Z" fill="rgb(45, 85, 255)"/>
<path d="M40.9805 40.9805L50.9404 50.9403C53.6848 48.1902 53.6848 43.7344 50.9347 40.9843C48.1864 38.2379 43.7326 38.236 40.9805 40.9805Z" fill="rgb(45, 85, 255)"/>
</g>
<defs>
<clipPath id="clip0_4042_62999">
<rect width="72" height="72" fill="white"/>
</clipPath>
</defs>
</svg>
