<svg xmlns="http://www.w3.org/2000/svg" width="137" height="39" viewBox="0 0 137 39" fill="none">
<g clip-path="url(#clip0_3777_21940)">
<path d="M21.7771 24.3739C20.8441 25.2681 19.4974 25.2695 18.6358 24.5466C17.6176 23.6928 16.44 23.4059 15.1758 23.3975C12.3891 23.378 9.60237 23.3836 6.81702 23.3975C6.04339 23.4017 5.27251 23.4908 4.56071 23.8405C3.89564 24.1678 3.44767 24.672 3.3666 25.4395C3.27591 26.303 3.60295 26.9716 4.34223 27.4145C5.00318 27.8101 5.73696 27.9967 6.48861 28.058C8.79851 28.2461 11.1125 28.3951 13.4238 28.5748C14.7402 28.6765 16.058 28.7837 17.3689 28.9369C17.8883 28.9982 18.405 29.1528 18.8997 29.3339C21.057 30.1236 22.1344 31.7505 22.0794 34.0696C22.0286 36.2035 20.987 37.6339 19.0618 38.432C17.9708 38.8833 16.8179 39.0156 15.6554 39.0226C12.848 39.0379 10.0421 39.0393 7.23475 39.0226C5.86613 39.0142 4.51537 38.8527 3.23331 38.3206C1.82071 37.7342 0.732407 36.7982 0.145657 35.3343C0.0934403 35.2034 0.0618355 35.0655 0 34.8635C0.386128 34.6685 0.744774 34.422 1.1419 34.298C1.98973 34.0334 2.77573 34.227 3.36935 34.9011C4.24329 35.8942 5.35083 36.3288 6.61502 36.3636C8.32168 36.411 10.0311 36.4068 11.7391 36.4068C13.285 36.4068 14.8309 36.4124 16.374 36.3511C16.9086 36.3302 17.461 36.1756 17.9612 35.9708C18.8145 35.6226 19.2418 34.9318 19.2528 33.9874C19.2638 33.0222 18.8681 32.2867 17.979 31.9343C17.3607 31.6906 16.6983 31.4956 16.0415 31.4315C13.8566 31.217 11.6636 31.0847 9.47595 30.8939C7.85723 30.7532 6.23852 30.6014 4.62667 30.3938C3.83792 30.2922 3.10139 29.9607 2.43082 29.5122C1.28755 28.7461 0.663701 27.6652 0.551023 26.2807C0.311926 23.3599 1.96499 21.6188 4.63904 21.0422C5.38931 20.8806 6.16981 20.804 6.93794 20.7957C9.70405 20.7664 12.4702 20.779 15.2363 20.7873C16.4427 20.7915 17.63 20.9517 18.7636 21.396C20.0828 21.9127 21.134 22.7415 21.7139 24.094C21.7386 24.1497 21.7579 24.2096 21.7757 24.2681C21.7812 24.2862 21.7757 24.3085 21.7757 24.3739H21.7771Z" fill="white"/>
<path d="M33.4155 30.0113C33.4155 27.4554 33.4155 24.8995 33.4155 22.3436C33.4155 22.1987 33.4114 22.0553 33.4169 21.9104C33.4417 21.3561 33.6615 21.1207 34.2057 21.1179C35.6402 21.1109 36.9223 21.5803 38.0518 22.4634C39.2116 23.3687 40.3549 24.2964 41.5036 25.2157C45.0173 28.0223 48.5295 30.8303 52.0431 33.6369C52.1874 33.7511 52.3248 33.875 52.4774 33.9767C53.0064 34.3333 53.5519 34.0784 53.6358 33.4335C53.6591 33.2511 53.6481 33.063 53.6481 32.8778C53.6481 29.6422 53.655 26.4052 53.644 23.1695C53.6413 22.377 53.9339 21.7767 54.6018 21.3616C55.0841 21.0622 55.6131 21.0761 56.1408 21.1402C56.4651 21.1792 56.6149 21.441 56.6616 21.7461C56.6891 21.9271 56.6781 22.1166 56.6781 22.3018C56.6781 27.4749 56.6781 32.6493 56.6781 37.8224C56.6781 37.9255 56.6808 38.0286 56.6781 38.1316C56.652 38.7737 56.417 39.0133 55.7684 39.0217C54.441 39.0398 53.2551 38.6442 52.2053 37.8015C48.9692 35.2038 45.7236 32.6187 42.482 30.028C40.9485 28.8037 39.4163 27.5779 37.8828 26.3536C37.7715 26.2645 37.663 26.1684 37.5407 26.0945C37.0542 25.802 36.5334 26.0555 36.4565 26.628C36.4317 26.8105 36.4455 26.9985 36.4455 27.1838C36.4455 30.3163 36.4455 33.4502 36.4427 36.5828C36.4427 36.8488 36.4455 37.1246 36.3891 37.3809C36.1665 38.3837 35.2569 39.0648 34.2304 39.0217C33.6739 38.998 33.4362 38.7514 33.4169 38.1692C33.4114 38.0258 33.4169 37.8809 33.4169 37.7361C33.4169 35.1593 33.4169 32.5825 33.4169 30.0071L33.4155 30.0113Z" fill="white"/>
<path d="M88.3054 30.1029C88.3054 27.547 88.3054 24.9925 88.3054 22.4366C88.3054 22.3127 88.3054 22.1887 88.3054 22.0661C88.3164 21.2736 88.5019 21.0981 89.3017 21.119C90.1468 21.1413 90.9589 21.3293 91.7078 21.7207C92.2107 21.9839 92.7026 22.2862 93.1465 22.64C97.7676 26.3171 102.379 30.0082 106.993 33.6951C107.105 33.7842 107.213 33.8789 107.332 33.9597C107.898 34.3469 108.447 34.0837 108.497 33.4026C108.509 33.2382 108.501 33.0725 108.501 32.9081C108.501 29.7547 108.5 26.6027 108.504 23.4492C108.504 23.1637 108.511 22.867 108.581 22.5926C108.882 21.4115 109.878 20.9463 111.046 21.1482C111.33 21.197 111.495 21.4226 111.52 21.7207C111.535 21.9045 111.529 22.0912 111.529 22.2764C111.529 27.469 111.529 32.663 111.529 37.8555C111.529 37.9586 111.532 38.0617 111.529 38.1648C111.512 38.7846 111.299 39.0116 110.672 39.0228C109.323 39.0492 108.119 38.6425 107.055 37.7845C104.876 36.0267 102.683 34.2857 100.497 32.5376C97.9421 30.4957 95.3877 28.4552 92.8332 26.4132C92.6903 26.299 92.5515 26.1737 92.3934 26.0817C91.9262 25.8087 91.4316 26.0539 91.3505 26.6013C91.3202 26.8032 91.3312 27.0122 91.3312 27.2183C91.3312 30.3299 91.3312 33.4416 91.3271 36.5532C91.3271 36.8402 91.3148 37.134 91.2529 37.4112C91.0289 38.4224 90.03 39.1314 89.0172 39.0214C88.5308 38.9684 88.3164 38.7372 88.3095 38.201C88.2972 37.3151 88.3054 36.4293 88.3054 35.542C88.3054 33.7285 88.3054 31.915 88.3054 30.1015V30.1029Z" fill="white"/>
<path d="M72.71 24.0866C72.4861 24.3986 72.339 24.5908 72.2044 24.79C69.2651 29.119 66.3272 33.4494 63.3852 37.7784C63.2355 37.9985 63.0802 38.2172 62.9029 38.4136C62.5086 38.8537 61.9891 39.0139 61.4203 39.0236C60.8514 39.0334 60.2811 39.0264 59.7108 39.0264C59.4855 39.0264 59.2615 39.0334 59.1268 38.7896C58.9743 38.5152 59.1323 38.3202 59.2711 38.1155C60.8033 35.8563 62.3368 33.5985 63.8689 31.3406C65.8518 28.4198 67.88 25.5296 69.7996 22.5684C71.1463 20.4917 74.2655 20.4847 75.6699 22.5963C79.1025 27.7568 82.6051 32.87 86.0789 38.0027C86.1366 38.0876 86.197 38.1712 86.2479 38.2603C86.4952 38.6921 86.3565 39.0027 85.8728 39.0195C85.1816 39.0431 84.489 39.0417 83.7992 39.0097C83.1204 38.9777 82.6243 38.6058 82.2478 38.0458C81.5608 37.0235 80.8655 36.0067 80.1743 34.9885C77.8575 31.576 75.5421 28.1621 73.2226 24.751C73.0893 24.556 72.9327 24.3763 72.7087 24.0894L72.71 24.0866Z" fill="white"/>
<path d="M28.8776 29.601C28.8776 32.0539 28.8776 34.5067 28.8776 36.9609C28.8776 37.1462 28.8845 37.3328 28.8666 37.5167C28.7979 38.2117 28.3018 38.8232 27.6216 38.9429C27.1462 39.0279 26.6501 39.0265 26.1651 39.0084C25.7735 38.9945 25.6141 38.7758 25.5866 38.3565C25.5783 38.234 25.5838 38.1086 25.5838 37.986C25.5838 32.9773 25.5838 27.9672 25.5838 22.9585C25.5838 22.7942 25.5783 22.627 25.5962 22.464C25.6731 21.7077 26.275 21.0781 27.0225 21.0015C27.3853 20.9639 27.7536 20.9709 28.1191 20.9793C28.7484 20.9918 28.8721 21.1158 28.8749 21.7495C28.8803 23.0282 28.8776 24.3054 28.8776 25.584C28.8776 26.924 28.8776 28.2639 28.8776 29.6038V29.601Z" fill="white"/>
<path d="M122.434 9.8894C121.128 13.5805 120.084 16.5055 117.006 16.5055C113.158 16.5055 111.578 8.84475 111.578 5.29297H117.556C117.716 9.03047 118.985 16.5055 122.777 16.5055C126.57 16.5055 127.678 12.9729 127.861 11.0733C128.205 7.52154 123.542 6.75547 122.434 9.8894Z" stroke="url(#paint0_linear_3777_21940)" stroke-width="1.5" stroke-linejoin="round"/>
</g>
<defs>
<linearGradient id="paint0_linear_3777_21940" x1="110.5" y1="5.00012" x2="131.554" y2="12.8551" gradientUnits="userSpaceOnUse">
<stop stop-color="#FBB80D"/>
<stop offset="1" stop-color="#FFEA7D"/>
</linearGradient>
<clipPath id="clip0_3777_21940">
<rect width="137" height="39" fill="white"/>
</clipPath>
</defs>
</svg>